{"title":"Cloud.Atlas.2012.720p.BluRay.DTS.x264-AMX","uid":8276289,"size":5358437872,"categoryP":"video","categoryS":"hd___movies","magnet":"?xt=urn:btih:c22dc7eed945529f156bea0cfe5c7d0ab2c5e73e&amp;dn=Cloud.Atlas.2012.720p.BluRay.DTS.x264-AMX&amp;tr=udp%3A%2F%2Ftracker.openbittorrent.com%3A80&amp;tr=udp%3A%2F%2Fopen.demonii.com%3A1337&amp;tr=udp%3A%2F%2Ftracker.coppersurfer.tk%3A6969&amp;tr=udp%3A%2F%2Fexodus.desync.com%3A6969","seeders":1,"leechers":0,"uploader":"Lawry1494","files":-1,"time":1363722113,"description":"General\nComplete name                  : Cloud.Atlas.2012.720p.BluRay.DTS.x264-AMX.mkv\nFormat                         : Matroska\nFormat version                 : Version 4 / Version 2\nFile size                      : 4.95 GiB\nDuration                       : 2h 52mn\nOverall bit rate               : 4 116 Kbps\nWriting application            : mkvmerge v6.0.0 ('Coming Up For Air') built on Jan 20 2013 09:52:00\nWriting library                : libebml v1.3.0 + libmatroska v1.4.0\n\nVideo\nID                             : 1\nFormat                         : AVC\nFormat/Info                    : Advanced Video Codec\nFormat profile                 : &lt;a class=&quot;__cf_email__&quot; href=&quot;/cdn-cgi/l/email-protection&quot; data-cfemail=&quot;9ed6f7f9f6ded2aab0ae&quot;&gt;[email&amp;#160;protected]&lt;/a&gt;&lt;script cf-hash='f9e31' type=&quot;text/javascript&quot;&gt;\n/* &lt;![CDATA[ */!function(){try{var t=&quot;currentScript&quot;in document?document.currentScript:function(){for(var t=document.getElementsByTagName(&quot;script&quot;),e=t.length;e--;)if(t[e].getAttribute(&quot;cf-hash&quot;))return t[e]}();if(t&amp;&amp;t.previousSibling){var e,r,n,i,c=t.previousSibling,a=c.getAttribute(&quot;data-cfemail&quot;);if(a){for(e=&quot;&quot;,r=parseInt(a.substr(0,2),16),n=2;a.length-n;n+=2)i=parseInt(a.substr(n,2),16)^r,e+=String.fromCharCode(i);e=document.createTextNode(e),c.parentNode.replaceChild(e,c)}}}catch(u){}}();/* ]]&gt; */&lt;/script&gt;\nFormat settings, CABAC         : Yes\nFormat settings, ReFrames      : 8 frames\nCodec ID                       : V_MPEG4/ISO/AVC\nDuration                       : 2h 52mn\nBit rate                       : 2 525 Kbps\nWidth                          : 1 280 pixels\nHeight                         : 544 pixels\nDisplay aspect ratio           : 2.35:1\nFrame rate mode                : Constant\nFrame rate                     : 23.976 fps\nColor space                    : YUV\nChroma subsampling             : 4:2:0\nBit depth                      : 8 bits\nScan type                      : Progressive\nBits/(Pixel*Frame)             : 0.151\nStream size                    : 3.04 GiB (61%)\nWriting library                : x264 core 129 r2245 bc13772\nDefault                        : Yes\nForced                         : No\n\nAudio\nID                             : 2\nFormat                         : DTS\nFormat/Info                    : Digital Theater Systems\nMode                           : 16\nFormat settings, Endianness    : Big\nCodec ID                       : A_DTS\nDuration                       : 2h 52mn\nBit rate mode                  : Constant\nBit rate                       : 1 509 Kbps\nChannel(s)                     : 6 channels\nChannel positions              : Front: L C R, Side: L R, LFE\nSampling rate                  : 48.0 KHz\nBit depth                      : 24 bits\nCompression mode               : Lossy\nStream size                    : 1.81 GiB (37%)\nLanguage                       : English\nDefault                        : Yes\nForced                         : No\n\nChapters: None at source!\nSubs: None at source!\nSource: Cloud.Atlas.2012.1080p.Bluray.x264.DTS-NYDIC Thanks!!!","torrent":{"xt":"urn:btih:c22dc7eed945529f156bea0cfe5c7d0ab2c5e73e","amp;dn":"Cloud.Atlas.2012.720p.BluRay.DTS.x264-AMX","amp;tr":["udp%3A%2F%2Ftracker.openbittorrent.com%3A80","udp%3A%2F%2Fopen.demonii.com%3A1337","udp%3A%2F%2Ftracker.coppersurfer.tk%3A6969","udp%3A%2F%2Fexodus.desync.com%3A6969"],"infoHash":"c22dc7eed945529f156bea0cfe5c7d0ab2c5e73e","infoHashBuffer":{"type":"Buffer","data":[194,45,199,238,217,69,82,159,21,107,234,12,254,92,125,10,178,197,231,62]},"announce":[],"urlList":[]}}